<svg width="1104" height="338" viewBox="0 0 1104 338" fill="none" xmlns="http://www.w3.org/2000/svg">
<g clip-path="url(#clip0_1462_348)">
<g filter="url(#filter0_d_1462_348)">
<rect width="1104" height="338" rx="4" fill="#191919"/>
</g>
<mask id="mask0_1462_348" style="mask-type:luminance" maskUnits="userSpaceOnUse" x="0" y="0" width="1104" height="338">
<rect width="1104" height="338" rx="4" fill="white"/>
</mask>
<g mask="url(#mask0_1462_348)">
<ellipse cx="861" cy="25.5758" rx="16" ry="15.5758" fill="white" fill-opacity="0.04"/>
<ellipse cx="776" cy="78.4015" rx="24" ry="23.3636" fill="white" fill-opacity="0.24"/>
<ellipse cx="705" cy="261.231" rx="29" ry="28.2311" fill="white" fill-opacity="0.12"/>
<ellipse cx="705" cy="261.231" rx="8" ry="7.78788" fill="white" fill-opacity="0.64"/>
<ellipse cx="1018" cy="41.303" rx="8" ry="7.78788" fill="white" fill-opacity="0.12"/>
<ellipse cx="738" cy="136.811" rx="2" ry="1.94697" fill="white" fill-opacity="0.48"/>
<ellipse cx="754" cy="17.072" rx="2" ry="1.94697" fill="white" fill-opacity="0.12"/>
<ellipse cx="861" cy="25.5758" rx="6" ry="5.84091" fill="white" fill-opacity="0.64"/>
<circle cx="952" cy="247" r="200" fill="url(#paint0_radial_1462_348)"/>
<path d="M49.3722 268L53.9261 258.991V258.912H48.6761V257.818H55.1989V258.972L50.6648 268H49.3722ZM63.8929 268.159C63.2566 268.159 62.6948 267.998 62.2076 267.677C61.7203 267.352 61.3392 266.895 61.0641 266.305C60.789 265.711 60.6515 265.01 60.6515 264.202C60.6515 263.4 60.789 262.704 61.0641 262.114C61.3392 261.524 61.722 261.068 62.2125 260.746C62.7031 260.425 63.2698 260.264 63.9128 260.264C64.41 260.264 64.8027 260.347 65.0911 260.513C65.3828 260.675 65.6048 260.861 65.7573 261.07C65.9131 261.275 66.034 261.444 66.1202 261.577H66.2196V257.818H67.3929V268H66.2594V266.827H66.1202C66.034 266.966 65.9114 267.142 65.7523 267.354C65.5932 267.562 65.3662 267.75 65.0712 267.915C64.7762 268.078 64.3835 268.159 63.8929 268.159ZM64.052 267.105C64.5227 267.105 64.9204 266.982 65.2452 266.737C65.57 266.489 65.8169 266.146 65.986 265.708C66.155 265.267 66.2395 264.759 66.2395 264.182C66.2395 263.612 66.1567 263.113 65.9909 262.685C65.8252 262.254 65.58 261.92 65.2551 261.681C64.9303 261.439 64.5293 261.318 64.052 261.318C63.5549 261.318 63.1406 261.446 62.8091 261.701C62.481 261.953 62.2341 262.296 62.0684 262.73C61.906 263.161 61.8248 263.645 61.8248 264.182C61.8248 264.725 61.9076 265.219 62.0733 265.663C62.2424 266.104 62.4909 266.455 62.8191 266.717C63.1505 266.976 63.5615 267.105 64.052 267.105ZM71.9519 268.179C71.468 268.179 71.0288 268.088 70.6344 267.906C70.24 267.72 69.9268 267.453 69.6948 267.105C69.4628 266.754 69.3468 266.33 69.3468 265.832C69.3468 265.395 69.4329 265.04 69.6053 264.768C69.7776 264.493 70.008 264.278 70.2963 264.122C70.5847 263.966 70.9029 263.85 71.2509 263.774C71.6022 263.695 71.9552 263.632 72.3098 263.585C72.7739 263.526 73.15 263.481 73.4384 263.451C73.7301 263.418 73.9422 263.363 74.0748 263.287C74.2106 263.211 74.2786 263.078 74.2786 262.889V262.849C74.2786 262.359 74.1444 261.978 73.8759 261.706C73.6107 261.434 73.208 261.298 72.6678 261.298C72.1077 261.298 71.6685 261.421 71.3503 261.666C71.0321 261.911 70.8084 262.173 70.6792 262.452L69.5655 262.054C69.7644 261.59 70.0295 261.229 70.361 260.97C70.6957 260.708 71.0603 260.526 71.4547 260.423C71.8525 260.317 72.2435 260.264 72.628 260.264C72.8733 260.264 73.155 260.294 73.4732 260.354C73.7947 260.41 74.1046 260.528 74.4029 260.707C74.7045 260.886 74.9547 261.156 75.1536 261.517C75.3525 261.878 75.4519 262.362 75.4519 262.969V268H74.2786V266.966H74.2189C74.1394 267.132 74.0068 267.309 73.8212 267.498C73.6356 267.687 73.3887 267.848 73.0804 267.98C72.7722 268.113 72.396 268.179 71.9519 268.179ZM72.1309 267.125C72.5949 267.125 72.986 267.034 73.3042 266.852C73.6257 266.669 73.8676 266.434 74.03 266.146C74.1957 265.857 74.2786 265.554 74.2786 265.236V264.162C74.2289 264.222 74.1195 264.276 73.9505 264.326C73.7847 264.372 73.5925 264.414 73.3738 264.45C73.1583 264.483 72.9479 264.513 72.7424 264.54C72.5402 264.563 72.3761 264.583 72.2502 264.599C71.9453 264.639 71.6602 264.704 71.3951 264.793C71.1332 264.879 70.9211 265.01 70.7587 265.186C70.5996 265.358 70.5201 265.594 70.5201 265.892C70.5201 266.3 70.6709 266.608 70.9725 266.817C71.2774 267.022 71.6635 267.125 72.1309 267.125ZM78.0756 270.864C77.8768 270.864 77.6995 270.847 77.5437 270.814C77.3879 270.784 77.2802 270.754 77.2205 270.724L77.5188 269.69C77.8039 269.763 78.0558 269.79 78.2745 269.77C78.4933 269.75 78.6871 269.652 78.8562 269.477C79.0285 269.304 79.186 269.024 79.3285 268.636L79.5472 268.04L76.7234 260.364H77.9961L80.104 266.449H80.1836L82.2915 260.364H83.5643L80.3228 269.114C80.177 269.508 79.9963 269.835 79.7809 270.093C79.5655 270.355 79.3152 270.549 79.0302 270.675C78.7485 270.801 78.4303 270.864 78.0756 270.864ZM90.522 262.074L89.468 262.372C89.4018 262.196 89.304 262.026 89.1747 261.86C89.0488 261.691 88.8764 261.552 88.6577 261.442C88.4389 261.333 88.1589 261.278 87.8175 261.278C87.3501 261.278 86.9607 261.386 86.6491 261.602C86.3409 261.814 86.1868 262.084 86.1868 262.412C86.1868 262.704 86.2929 262.934 86.505 263.103C86.7171 263.272 87.0485 263.413 87.4993 263.526L88.6328 263.804C89.3156 263.97 89.8243 264.223 90.1591 264.565C90.4938 264.903 90.6612 265.339 90.6612 265.872C90.6612 266.31 90.5353 266.701 90.2834 267.045C90.0348 267.39 89.6868 267.662 89.2393 267.861C88.7919 268.06 88.2715 268.159 87.6783 268.159C86.8994 268.159 86.2547 267.99 85.7443 267.652C85.2339 267.314 84.9107 266.82 84.7749 266.17L85.8885 265.892C85.9946 266.303 86.1951 266.611 86.4901 266.817C86.7884 267.022 87.1778 267.125 87.6584 267.125C88.2053 267.125 88.6394 267.009 88.9609 266.777C89.2857 266.542 89.4482 266.26 89.4482 265.932C89.4482 265.667 89.3554 265.445 89.1697 265.266C88.9841 265.083 88.6991 264.947 88.3146 264.858L87.0419 264.56C86.3426 264.394 85.8288 264.137 85.5007 263.789C85.1759 263.438 85.0135 262.999 85.0135 262.472C85.0135 262.041 85.1345 261.66 85.3764 261.328C85.6217 260.997 85.9548 260.737 86.3757 260.548C86.8 260.359 87.2805 260.264 87.8175 260.264C88.5732 260.264 89.1664 260.43 89.5973 260.761C90.0315 261.093 90.3397 261.53 90.522 262.074ZM99.7654 260.364V261.358H95.649V260.364H99.7654ZM96.8819 268V259.31C96.8819 258.872 96.9847 258.508 97.1902 258.216C97.3957 257.924 97.6625 257.705 97.9906 257.56C98.3187 257.414 98.6651 257.341 99.0297 257.341C99.318 257.341 99.5533 257.364 99.7356 257.411C99.9179 257.457 100.054 257.5 100.143 257.54L99.8052 258.554C99.7456 258.534 99.6627 258.509 99.5566 258.479C99.4539 258.45 99.318 258.435 99.149 258.435C98.7612 258.435 98.4811 258.532 98.3088 258.728C98.1397 258.924 98.0552 259.21 98.0552 259.588V268H96.8819ZM101.41 268V260.364H102.543V261.517H102.623C102.762 261.139 103.014 260.833 103.379 260.597C103.743 260.362 104.154 260.244 104.612 260.244C104.698 260.244 104.805 260.246 104.935 260.249C105.064 260.253 105.162 260.258 105.228 260.264V261.457C105.188 261.447 105.097 261.433 104.955 261.413C104.815 261.389 104.668 261.378 104.512 261.378C104.141 261.378 103.809 261.456 103.518 261.612C103.229 261.764 103.001 261.976 102.832 262.248C102.666 262.516 102.583 262.823 102.583 263.168V268H101.41ZM109.588 268.159C108.852 268.159 108.218 267.997 107.684 267.672C107.154 267.344 106.744 266.886 106.456 266.3C106.171 265.71 106.028 265.024 106.028 264.241C106.028 263.459 106.171 262.77 106.456 262.173C106.744 261.573 107.145 261.106 107.659 260.771C108.176 260.433 108.779 260.264 109.469 260.264C109.866 260.264 110.259 260.33 110.647 260.463C111.035 260.596 111.388 260.811 111.706 261.109C112.024 261.404 112.278 261.795 112.467 262.283C112.656 262.77 112.75 263.37 112.75 264.082V264.58H106.864V263.565H111.557C111.557 263.134 111.471 262.75 111.298 262.412C111.129 262.074 110.887 261.807 110.572 261.612C110.261 261.416 109.893 261.318 109.469 261.318C109.001 261.318 108.597 261.434 108.256 261.666C107.918 261.895 107.657 262.193 107.475 262.561C107.293 262.929 107.202 263.323 107.202 263.744V264.42C107.202 264.997 107.301 265.486 107.5 265.887C107.702 266.285 107.982 266.588 108.34 266.797C108.698 267.002 109.114 267.105 109.588 267.105C109.896 267.105 110.175 267.062 110.423 266.976C110.675 266.886 110.892 266.754 111.075 266.578C111.257 266.399 111.398 266.177 111.497 265.912L112.631 266.23C112.511 266.615 112.311 266.953 112.029 267.244C111.747 267.533 111.399 267.758 110.985 267.92C110.571 268.08 110.105 268.159 109.588 268.159ZM117.737 268.159C117.001 268.159 116.366 267.997 115.832 267.672C115.302 267.344 114.893 266.886 114.604 266.3C114.319 265.71 114.177 265.024 114.177 264.241C114.177 263.459 114.319 262.77 114.604 262.173C114.893 261.573 115.294 261.106 115.808 260.771C116.325 260.433 116.928 260.264 117.617 260.264C118.015 260.264 118.408 260.33 118.795 260.463C119.183 260.596 119.536 260.811 119.854 261.109C120.173 261.404 120.426 261.795 120.615 262.283C120.804 262.77 120.898 263.37 120.898 264.082V264.58H115.012V263.565H119.705C119.705 263.134 119.619 262.75 119.447 262.412C119.278 262.074 119.036 261.807 118.721 261.612C118.409 261.416 118.041 261.318 117.617 261.318C117.15 261.318 116.746 261.434 116.404 261.666C116.066 261.895 115.806 262.193 115.624 262.561C115.441 262.929 115.35 263.323 115.35 263.744V264.42C115.35 264.997 115.45 265.486 115.648 265.887C115.851 266.285 116.131 266.588 116.489 266.797C116.847 267.002 117.263 267.105 117.737 267.105C118.045 267.105 118.323 267.062 118.572 266.976C118.824 266.886 119.041 266.754 119.223 266.578C119.405 266.399 119.546 266.177 119.646 265.912L120.779 266.23C120.66 266.615 120.459 266.953 120.178 267.244C119.896 267.533 119.548 267.758 119.134 267.92C118.719 268.08 118.254 268.159 117.737 268.159ZM129.942 260.364V261.358H125.984V260.364H129.942ZM127.138 258.534H128.311V265.812C128.311 266.144 128.359 266.393 128.455 266.558C128.555 266.721 128.681 266.83 128.833 266.886C128.989 266.939 129.153 266.966 129.325 266.966C129.455 266.966 129.561 266.959 129.643 266.946C129.726 266.929 129.793 266.916 129.842 266.906L130.081 267.96C130.001 267.99 129.89 268.02 129.748 268.05C129.605 268.083 129.425 268.099 129.206 268.099C128.875 268.099 128.55 268.028 128.232 267.886C127.917 267.743 127.655 267.526 127.446 267.234C127.241 266.943 127.138 266.575 127.138 266.131V258.534ZM131.707 268V260.364H132.84V261.517H132.92C133.059 261.139 133.311 260.833 133.675 260.597C134.04 260.362 134.451 260.244 134.908 260.244C134.995 260.244 135.102 260.246 135.232 260.249C135.361 260.253 135.459 260.258 135.525 260.264V261.457C135.485 261.447 135.394 261.433 135.251 261.413C135.112 261.389 134.965 261.378 134.809 261.378C134.438 261.378 134.106 261.456 133.815 261.612C133.526 261.764 133.298 261.976 133.129 262.248C132.963 262.516 132.88 262.823 132.88 263.168V268H131.707ZM136.916 268V260.364H138.089V268H136.916ZM137.512 259.091C137.284 259.091 137.086 259.013 136.921 258.857C136.758 258.701 136.677 258.514 136.677 258.295C136.677 258.077 136.758 257.889 136.921 257.734C137.086 257.578 137.284 257.5 137.512 257.5C137.741 257.5 137.936 257.578 138.099 257.734C138.265 257.889 138.347 258.077 138.347 258.295C138.347 258.514 138.265 258.701 138.099 258.857C137.936 259.013 137.741 259.091 137.512 259.091ZM142.485 268.179C142.001 268.179 141.562 268.088 141.168 267.906C140.773 267.72 140.46 267.453 140.228 267.105C139.996 266.754 139.88 266.33 139.88 265.832C139.88 265.395 139.966 265.04 140.138 264.768C140.311 264.493 140.541 264.278 140.83 264.122C141.118 263.966 141.436 263.85 141.784 263.774C142.135 263.695 142.488 263.632 142.843 263.585C143.307 263.526 143.683 263.481 143.972 263.451C144.263 263.418 144.475 263.363 144.608 263.287C144.744 263.211 144.812 263.078 144.812 262.889V262.849C144.812 262.359 144.678 261.978 144.409 261.706C144.144 261.434 143.741 261.298 143.201 261.298C142.641 261.298 142.202 261.421 141.884 261.666C141.565 261.911 141.342 262.173 141.212 262.452L140.099 262.054C140.298 261.59 140.563 261.229 140.894 260.97C141.229 260.708 141.594 260.526 141.988 260.423C142.386 260.317 142.777 260.264 143.161 260.264C143.406 260.264 143.688 260.294 144.006 260.354C144.328 260.41 144.638 260.528 144.936 260.707C145.238 260.886 145.488 261.156 145.687 261.517C145.886 261.878 145.985 262.362 145.985 262.969V268H144.812V266.966H144.752C144.673 267.132 144.54 267.309 144.354 267.498C144.169 267.687 143.922 267.848 143.614 267.98C143.305 268.113 142.929 268.179 142.485 268.179ZM142.664 267.125C143.128 267.125 143.519 267.034 143.837 266.852C144.159 266.669 144.401 266.434 144.563 266.146C144.729 265.857 144.812 265.554 144.812 265.236V264.162C144.762 264.222 144.653 264.276 144.484 264.326C144.318 264.372 144.126 264.414 143.907 264.45C143.692 264.483 143.481 264.513 143.276 264.54C143.073 264.563 142.909 264.583 142.783 264.599C142.478 264.639 142.193 264.704 141.928 264.793C141.666 264.879 141.454 265.01 141.292 265.186C141.133 265.358 141.053 265.594 141.053 265.892C141.053 266.3 141.204 266.608 141.506 266.817C141.811 267.022 142.197 267.125 142.664 267.125ZM149.3 257.818V268H148.127V257.818H149.3ZM152.304 268.08C152.059 268.08 151.848 267.992 151.673 267.816C151.497 267.64 151.409 267.43 151.409 267.185C151.409 266.939 151.497 266.729 151.673 266.553C151.848 266.378 152.059 266.29 152.304 266.29C152.549 266.29 152.76 266.378 152.935 266.553C153.111 266.729 153.199 266.939 153.199 267.185C153.199 267.347 153.157 267.496 153.075 267.632C152.995 267.768 152.887 267.877 152.751 267.96C152.619 268.04 152.47 268.08 152.304 268.08ZM167.475 257.818V268H166.282L160.733 260.006H160.634V268H159.401V257.818H160.594L166.162 265.832H166.262V257.818H167.475ZM172.885 268.159C172.196 268.159 171.591 267.995 171.07 267.667C170.553 267.339 170.149 266.88 169.857 266.29C169.569 265.7 169.425 265.01 169.425 264.222C169.425 263.426 169.569 262.732 169.857 262.138C170.149 261.545 170.553 261.085 171.07 260.756C171.591 260.428 172.196 260.264 172.885 260.264C173.575 260.264 174.178 260.428 174.695 260.756C175.215 261.085 175.619 261.545 175.908 262.138C176.2 262.732 176.345 263.426 176.345 264.222C176.345 265.01 176.2 265.7 175.908 266.29C175.619 266.88 175.215 267.339 174.695 267.667C174.178 267.995 173.575 268.159 172.885 268.159ZM172.885 267.105C173.409 267.105 173.84 266.971 174.178 266.702C174.516 266.434 174.766 266.081 174.928 265.643C175.091 265.206 175.172 264.732 175.172 264.222C175.172 263.711 175.091 263.236 174.928 262.795C174.766 262.354 174.516 261.998 174.178 261.726C173.84 261.454 173.409 261.318 172.885 261.318C172.361 261.318 171.931 261.454 171.593 261.726C171.254 261.998 171.004 262.354 170.842 262.795C170.679 263.236 170.598 263.711 170.598 264.222C170.598 264.732 170.679 265.206 170.842 265.643C171.004 266.081 171.254 266.434 171.593 266.702C171.931 266.971 172.361 267.105 172.885 267.105ZM185.176 268.159C184.46 268.159 183.844 267.99 183.327 267.652C182.81 267.314 182.412 266.848 182.134 266.255C181.855 265.662 181.716 264.984 181.716 264.222C181.716 263.446 181.858 262.762 182.143 262.168C182.432 261.572 182.833 261.106 183.347 260.771C183.864 260.433 184.467 260.264 185.156 260.264C185.693 260.264 186.177 260.364 186.608 260.562C187.039 260.761 187.392 261.04 187.667 261.398C187.942 261.756 188.113 262.173 188.179 262.651H187.006C186.916 262.303 186.717 261.994 186.409 261.726C186.104 261.454 185.693 261.318 185.176 261.318C184.719 261.318 184.318 261.437 183.973 261.676C183.632 261.911 183.365 262.245 183.173 262.675C182.984 263.103 182.889 263.605 182.889 264.182C182.889 264.772 182.982 265.286 183.168 265.723C183.357 266.161 183.622 266.5 183.963 266.742C184.308 266.984 184.712 267.105 185.176 267.105C185.481 267.105 185.758 267.052 186.006 266.946C186.255 266.84 186.465 266.688 186.638 266.489C186.81 266.29 186.933 266.051 187.006 265.773H188.179C188.113 266.223 187.949 266.629 187.687 266.991C187.428 267.349 187.085 267.634 186.658 267.846C186.233 268.055 185.74 268.159 185.176 268.159ZM189.894 268V260.364H191.028V261.517H191.107C191.246 261.139 191.498 260.833 191.863 260.597C192.228 260.362 192.638 260.244 193.096 260.244C193.182 260.244 193.29 260.246 193.419 260.249C193.548 260.253 193.646 260.258 193.712 260.264V261.457C193.673 261.447 193.581 261.433 193.439 261.413C193.3 261.389 193.152 261.378 192.996 261.378C192.625 261.378 192.294 261.456 192.002 261.612C191.714 261.764 191.485 261.976 191.316 262.248C191.15 262.516 191.067 262.823 191.067 263.168V268H189.894ZM198.072 268.159C197.337 268.159 196.702 267.997 196.168 267.672C195.638 267.344 195.229 266.886 194.94 266.3C194.655 265.71 194.513 265.024 194.513 264.241C194.513 263.459 194.655 262.77 194.94 262.173C195.229 261.573 195.63 261.106 196.143 260.771C196.661 260.433 197.264 260.264 197.953 260.264C198.351 260.264 198.744 260.33 199.131 260.463C199.519 260.596 199.872 260.811 200.19 261.109C200.509 261.404 200.762 261.795 200.951 262.283C201.14 262.77 201.234 263.37 201.234 264.082V264.58H195.348V263.565H200.041C200.041 263.134 199.955 262.75 199.783 262.412C199.614 262.074 199.372 261.807 199.057 261.612C198.745 261.416 198.377 261.318 197.953 261.318C197.486 261.318 197.081 261.434 196.74 261.666C196.402 261.895 196.142 262.193 195.96 262.561C195.777 262.929 195.686 263.323 195.686 263.744V264.42C195.686 264.997 195.786 265.486 195.984 265.887C196.187 266.285 196.467 266.588 196.825 266.797C197.183 267.002 197.598 267.105 198.072 267.105C198.381 267.105 198.659 267.062 198.908 266.976C199.16 266.886 199.377 266.754 199.559 266.578C199.741 266.399 199.882 266.177 199.982 265.912L201.115 266.23C200.996 266.615 200.795 266.953 200.513 267.244C200.232 267.533 199.884 267.758 199.469 267.92C199.055 268.08 198.589 268.159 198.072 268.159ZM205.903 268.159C205.266 268.159 204.705 267.998 204.217 267.677C203.73 267.352 203.349 266.895 203.074 266.305C202.799 265.711 202.661 265.01 202.661 264.202C202.661 263.4 202.799 262.704 203.074 262.114C203.349 261.524 203.732 261.068 204.222 260.746C204.713 260.425 205.28 260.264 205.923 260.264C206.42 260.264 206.813 260.347 207.101 260.513C207.393 260.675 207.615 260.861 207.767 261.07C207.923 261.275 208.044 261.444 208.13 261.577H208.229V257.818H209.403V268H208.269V266.827H208.13C208.044 266.966 207.921 267.142 207.762 267.354C207.603 267.562 207.376 267.75 207.081 267.915C206.786 268.078 206.393 268.159 205.903 268.159ZM206.062 267.105C206.532 267.105 206.93 266.982 207.255 266.737C207.58 266.489 207.827 266.146 207.996 265.708C208.165 265.267 208.249 264.759 208.249 264.182C208.249 263.612 208.166 263.113 208.001 262.685C207.835 262.254 207.59 261.92 207.265 261.681C206.94 261.439 206.539 261.318 206.062 261.318C205.565 261.318 205.15 261.446 204.819 261.701C204.491 261.953 204.244 262.296 204.078 262.73C203.916 263.161 203.835 263.645 203.835 264.182C203.835 264.725 203.917 265.219 204.083 265.663C204.252 266.104 204.501 266.455 204.829 266.717C205.16 266.976 205.571 267.105 206.062 267.105ZM211.714 268V260.364H212.888V268H211.714ZM212.311 259.091C212.082 259.091 211.885 259.013 211.719 258.857C211.557 258.701 211.476 258.514 211.476 258.295C211.476 258.077 211.557 257.889 211.719 257.734C211.885 257.578 212.082 257.5 212.311 257.5C212.54 257.5 212.735 257.578 212.898 257.734C213.063 257.889 213.146 258.077 213.146 258.295C213.146 258.514 213.063 258.701 212.898 258.857C212.735 259.013 212.54 259.091 212.311 259.091ZM218.358 260.364V261.358H214.4V260.364H218.358ZM215.554 258.534H216.727V265.812C216.727 266.144 216.775 266.393 216.871 266.558C216.971 266.721 217.097 266.83 217.249 266.886C217.405 266.939 217.569 266.966 217.741 266.966C217.871 266.966 217.977 266.959 218.059 266.946C218.142 266.929 218.209 266.916 218.258 266.906L218.497 267.96C218.417 267.99 218.306 268.02 218.164 268.05C218.021 268.083 217.841 268.099 217.622 268.099C217.291 268.099 216.966 268.028 216.648 267.886C216.333 267.743 216.071 267.526 215.862 267.234C215.657 266.943 215.554 266.575 215.554 266.131V258.534ZM227.162 268.159C226.447 268.159 225.83 267.99 225.313 267.652C224.796 267.314 224.398 266.848 224.12 266.255C223.841 265.662 223.702 264.984 223.702 264.222C223.702 263.446 223.845 262.762 224.13 262.168C224.418 261.572 224.819 261.106 225.333 260.771C225.85 260.433 226.453 260.264 227.143 260.264C227.68 260.264 228.163 260.364 228.594 260.562C229.025 260.761 229.378 261.04 229.653 261.398C229.928 261.756 230.099 262.173 230.165 262.651H228.992C228.903 262.303 228.704 261.994 228.395 261.726C228.09 261.454 227.68 261.318 227.162 261.318C226.705 261.318 226.304 261.437 225.959 261.676C225.618 261.911 225.351 262.245 225.159 262.675C224.97 263.103 224.876 263.605 224.876 264.182C224.876 264.772 224.968 265.286 225.154 265.723C225.343 266.161 225.608 266.5 225.949 266.742C226.294 266.984 226.698 267.105 227.162 267.105C227.467 267.105 227.744 267.052 227.993 266.946C228.241 266.84 228.452 266.688 228.624 266.489C228.796 266.29 228.919 266.051 228.992 265.773H230.165C230.099 266.223 229.935 266.629 229.673 266.991C229.415 267.349 229.072 267.634 228.644 267.846C228.22 268.055 227.726 268.159 227.162 268.159ZM234.128 268.179C233.644 268.179 233.205 268.088 232.81 267.906C232.416 267.72 232.103 267.453 231.871 267.105C231.639 266.754 231.523 266.33 231.523 265.832C231.523 265.395 231.609 265.04 231.781 264.768C231.953 264.493 232.184 264.278 232.472 264.122C232.76 263.966 233.079 263.85 233.427 263.774C233.778 263.695 234.131 263.632 234.486 263.585C234.95 263.526 235.326 263.481 235.614 263.451C235.906 263.418 236.118 263.363 236.251 263.287C236.386 263.211 236.454 263.078 236.454 262.889V262.849C236.454 262.359 236.32 261.978 236.052 261.706C235.787 261.434 235.384 261.298 234.844 261.298C234.283 261.298 233.844 261.421 233.526 261.666C233.208 261.911 232.984 262.173 232.855 262.452L231.741 262.054C231.94 261.59 232.205 261.229 232.537 260.97C232.872 260.708 233.236 260.526 233.631 260.423C234.028 260.317 234.419 260.264 234.804 260.264C235.049 260.264 235.331 260.294 235.649 260.354C235.97 260.41 236.28 260.528 236.579 260.707C236.88 260.886 237.131 261.156 237.329 261.517C237.528 261.878 237.628 262.362 237.628 262.969V268H236.454V266.966H236.395C236.315 267.132 236.183 267.309 235.997 267.498C235.811 267.687 235.564 267.848 235.256 267.98C234.948 268.113 234.572 268.179 234.128 268.179ZM234.307 267.125C234.771 267.125 235.162 267.034 235.48 266.852C235.801 266.669 236.043 266.434 236.206 266.146C236.372 265.857 236.454 265.554 236.454 265.236V264.162C236.405 264.222 236.295 264.276 236.126 264.326C235.961 264.372 235.768 264.414 235.55 264.45C235.334 264.483 235.124 264.513 234.918 264.54C234.716 264.563 234.552 264.583 234.426 264.599C234.121 264.639 233.836 264.704 233.571 264.793C233.309 264.879 233.097 265.01 232.934 265.186C232.775 265.358 232.696 265.594 232.696 265.892C232.696 266.3 232.847 266.608 233.148 266.817C233.453 267.022 233.839 267.125 234.307 267.125ZM239.769 268V260.364H240.903V261.517H240.982C241.121 261.139 241.373 260.833 241.738 260.597C242.103 260.362 242.513 260.244 242.971 260.244C243.057 260.244 243.165 260.246 243.294 260.249C243.423 260.253 243.521 260.258 243.587 260.264V261.457C243.548 261.447 243.456 261.433 243.314 261.413C243.175 261.389 243.027 261.378 242.871 261.378C242.5 261.378 242.169 261.456 241.877 261.612C241.589 261.764 241.36 261.976 241.191 262.248C241.025 262.516 240.942 262.823 240.942 263.168V268H239.769ZM247.629 268.159C246.993 268.159 246.431 267.998 245.944 267.677C245.457 267.352 245.076 266.895 244.8 266.305C244.525 265.711 244.388 265.01 244.388 264.202C244.388 263.4 244.525 262.704 244.8 262.114C245.076 261.524 245.458 261.068 245.949 260.746C246.439 260.425 247.006 260.264 247.649 260.264C248.146 260.264 248.539 260.347 248.827 260.513C249.119 260.675 249.341 260.861 249.494 261.07C249.649 261.275 249.77 261.444 249.857 261.577H249.956V257.818H251.129V268H249.996V266.827H249.857C249.77 266.966 249.648 267.142 249.489 267.354C249.33 267.562 249.103 267.75 248.808 267.915C248.513 268.078 248.12 268.159 247.629 268.159ZM247.788 267.105C248.259 267.105 248.657 266.982 248.982 266.737C249.306 266.489 249.553 266.146 249.722 265.708C249.891 265.267 249.976 264.759 249.976 264.182C249.976 263.612 249.893 263.113 249.727 262.685C249.562 262.254 249.316 261.92 248.991 261.681C248.667 261.439 248.266 261.318 247.788 261.318C247.291 261.318 246.877 261.446 246.545 261.701C246.217 261.953 245.97 262.296 245.805 262.73C245.642 263.161 245.561 263.645 245.561 264.182C245.561 264.725 245.644 265.219 245.81 265.663C245.979 266.104 246.227 266.455 246.555 266.717C246.887 266.976 247.298 267.105 247.788 267.105ZM257.379 268V260.364H258.512V261.517H258.592C258.731 261.139 258.983 260.833 259.347 260.597C259.712 260.362 260.123 260.244 260.58 260.244C260.666 260.244 260.774 260.246 260.903 260.249C261.033 260.253 261.13 260.258 261.197 260.264V261.457C261.157 261.447 261.066 261.433 260.923 261.413C260.784 261.389 260.637 261.378 260.481 261.378C260.11 261.378 259.778 261.456 259.487 261.612C259.198 261.764 258.969 261.976 258.8 262.248C258.635 262.516 258.552 262.823 258.552 263.168V268H257.379ZM265.557 268.159C264.821 268.159 264.186 267.997 263.653 267.672C263.122 267.344 262.713 266.886 262.425 266.3C262.14 265.71 261.997 265.024 261.997 264.241C261.997 263.459 262.14 262.77 262.425 262.173C262.713 261.573 263.114 261.106 263.628 260.771C264.145 260.433 264.748 260.264 265.438 260.264C265.835 260.264 266.228 260.33 266.616 260.463C267.004 260.596 267.357 260.811 267.675 261.109C267.993 261.404 268.246 261.795 268.435 262.283C268.624 262.77 268.719 263.37 268.719 264.082V264.58H262.832V263.565H267.526C267.526 263.134 267.439 262.75 267.267 262.412C267.098 262.074 266.856 261.807 266.541 261.612C266.23 261.416 265.862 261.318 265.438 261.318C264.97 261.318 264.566 261.434 264.224 261.666C263.886 261.895 263.626 262.193 263.444 262.561C263.262 262.929 263.17 263.323 263.17 263.744V264.42C263.17 264.997 263.27 265.486 263.469 265.887C263.671 266.285 263.951 266.588 264.309 266.797C264.667 267.002 265.083 267.105 265.557 267.105C265.865 267.105 266.143 267.062 266.392 266.976C266.644 266.886 266.861 266.754 267.043 266.578C267.226 266.399 267.366 266.177 267.466 265.912L268.599 266.23C268.48 266.615 268.28 266.953 267.998 267.244C267.716 267.533 267.368 267.758 266.954 267.92C266.54 268.08 266.074 268.159 265.557 268.159ZM275.714 270.864V266.827H275.614C275.528 266.966 275.406 267.142 275.246 267.354C275.087 267.562 274.86 267.75 274.565 267.915C274.27 268.078 273.878 268.159 273.387 268.159C272.751 268.159 272.189 267.998 271.702 267.677C271.214 267.352 270.833 266.895 270.558 266.305C270.283 265.711 270.146 265.01 270.146 264.202C270.146 263.4 270.283 262.704 270.558 262.114C270.833 261.524 271.216 261.068 271.707 260.746C272.197 260.425 272.764 260.264 273.407 260.264C273.904 260.264 274.297 260.347 274.585 260.513C274.877 260.675 275.099 260.861 275.251 261.07C275.407 261.275 275.528 261.444 275.614 261.577H275.754V260.364H276.887V270.864H275.714ZM273.546 267.105C274.017 267.105 274.415 266.982 274.739 266.737C275.064 266.489 275.311 266.146 275.48 265.708C275.649 265.267 275.734 264.759 275.734 264.182C275.734 263.612 275.651 263.113 275.485 262.685C275.319 262.254 275.074 261.92 274.749 261.681C274.424 261.439 274.023 261.318 273.546 261.318C273.049 261.318 272.635 261.446 272.303 261.701C271.975 261.953 271.728 262.296 271.562 262.73C271.4 263.161 271.319 263.645 271.319 264.182C271.319 264.725 271.402 265.219 271.567 265.663C271.737 266.104 271.985 266.455 272.313 266.717C272.645 266.976 273.056 267.105 273.546 267.105ZM283.847 264.878V260.364H285.021V268H283.847V266.707H283.768C283.589 267.095 283.31 267.425 282.933 267.697C282.555 267.965 282.077 268.099 281.501 268.099C281.023 268.099 280.599 267.995 280.228 267.786C279.857 267.574 279.565 267.256 279.353 266.832C279.141 266.404 279.035 265.866 279.035 265.216V260.364H280.208V265.136C280.208 265.693 280.364 266.137 280.675 266.469C280.99 266.8 281.391 266.966 281.879 266.966C282.17 266.966 282.467 266.891 282.768 266.742C283.073 266.593 283.329 266.364 283.534 266.056C283.743 265.748 283.847 265.355 283.847 264.878ZM287.17 268V260.364H288.343V268H287.17ZM287.766 259.091C287.537 259.091 287.34 259.013 287.175 258.857C287.012 258.701 286.931 258.514 286.931 258.295C286.931 258.077 287.012 257.889 287.175 257.734C287.34 257.578 287.537 257.5 287.766 257.5C287.995 257.5 288.19 257.578 288.353 257.734C288.519 257.889 288.601 258.077 288.601 258.295C288.601 258.514 288.519 258.701 288.353 258.857C288.19 259.013 287.995 259.091 287.766 259.091ZM290.492 268V260.364H291.625V261.517H291.705C291.844 261.139 292.096 260.833 292.461 260.597C292.825 260.362 293.236 260.244 293.694 260.244C293.78 260.244 293.887 260.246 294.017 260.249C294.146 260.253 294.244 260.258 294.31 260.264V261.457C294.27 261.447 294.179 261.433 294.037 261.413C293.897 261.389 293.75 261.378 293.594 261.378C293.223 261.378 292.891 261.456 292.6 261.612C292.311 261.764 292.083 261.976 291.914 262.248C291.748 262.516 291.665 262.823 291.665 263.168V268H290.492ZM298.67 268.159C297.934 268.159 297.3 267.997 296.766 267.672C296.236 267.344 295.826 266.886 295.538 266.3C295.253 265.71 295.11 265.024 295.11 264.241C295.11 263.459 295.253 262.77 295.538 262.173C295.826 261.573 296.227 261.106 296.741 260.771C297.258 260.433 297.861 260.264 298.551 260.264C298.949 260.264 299.341 260.33 299.729 260.463C300.117 260.596 300.47 260.811 300.788 261.109C301.106 261.404 301.36 261.795 301.549 262.283C301.738 262.77 301.832 263.37 301.832 264.082V264.58H295.946V263.565H300.639C300.639 263.134 300.553 262.75 300.38 262.412C300.211 262.074 299.969 261.807 299.654 261.612C299.343 261.416 298.975 261.318 298.551 261.318C298.083 261.318 297.679 261.434 297.338 261.666C297 261.895 296.739 262.193 296.557 262.561C296.375 262.929 296.284 263.323 296.284 263.744V264.42C296.284 264.997 296.383 265.486 296.582 265.887C296.784 266.285 297.064 266.588 297.422 266.797C297.78 267.002 298.196 267.105 298.67 267.105C298.978 267.105 299.257 267.062 299.505 266.976C299.757 266.886 299.974 266.754 300.157 266.578C300.339 266.399 300.48 266.177 300.579 265.912L301.713 266.23C301.593 266.615 301.393 266.953 301.111 267.244C300.829 267.533 300.481 267.758 300.067 267.92C299.653 268.08 299.187 268.159 298.67 268.159ZM306.5 268.159C305.864 268.159 305.302 267.998 304.815 267.677C304.328 267.352 303.947 266.895 303.672 266.305C303.396 265.711 303.259 265.01 303.259 264.202C303.259 263.4 303.396 262.704 303.672 262.114C303.947 261.524 304.329 261.068 304.82 260.746C305.31 260.425 305.877 260.264 306.52 260.264C307.017 260.264 307.41 260.347 307.699 260.513C307.99 260.675 308.212 260.861 308.365 261.07C308.52 261.275 308.641 261.444 308.728 261.577H308.827V257.818H310V268H308.867V266.827H308.728C308.641 266.966 308.519 267.142 308.36 267.354C308.201 267.562 307.974 267.75 307.679 267.915C307.384 268.078 306.991 268.159 306.5 268.159ZM306.659 267.105C307.13 267.105 307.528 266.982 307.853 266.737C308.177 266.489 308.424 266.146 308.593 265.708C308.762 265.267 308.847 264.759 308.847 264.182C308.847 263.612 308.764 263.113 308.598 262.685C308.433 262.254 308.187 261.92 307.863 261.681C307.538 261.439 307.137 261.318 306.659 261.318C306.162 261.318 305.748 261.446 305.417 261.701C305.088 261.953 304.842 262.296 304.676 262.73C304.513 263.161 304.432 263.645 304.432 264.182C304.432 264.725 304.515 265.219 304.681 265.663C304.85 266.104 305.098 266.455 305.426 266.717C305.758 266.976 306.169 267.105 306.659 267.105ZM313.167 268.08C312.922 268.08 312.712 267.992 312.536 267.816C312.36 267.64 312.272 267.43 312.272 267.185C312.272 266.939 312.36 266.729 312.536 266.553C312.712 266.378 312.922 266.29 313.167 266.29C313.413 266.29 313.623 266.378 313.799 266.553C313.974 266.729 314.062 266.939 314.062 267.185C314.062 267.347 314.021 267.496 313.938 267.632C313.858 267.768 313.751 267.877 313.615 267.96C313.482 268.04 313.333 268.08 313.167 268.08Z" fill="#999999"/>
</g>
</g>
<defs>
<filter id="filter0_d_1462_348" x="-38" y="-18" width="1180" height="414" filterUnits="userSpaceOnUse" color-interpolation-filters="sRGB">
<feFlood flood-opacity="0" result="BackgroundImageFix"/>
<feColorMatrix in="SourceAlpha" type="matrix" values="0 0 0 0 0 0 0 0 0 0 0 0 0 0 0 0 0 0 127 0" result="hardAlpha"/>
<feMorphology radius="12" operator="erode" in="SourceAlpha" result="effect1_dropShadow_1462_348"/>
<feOffset dy="20"/>
<feGaussianBlur stdDeviation="25"/>
<feColorMatrix type="matrix" values="0 0 0 0 0.0980392 0 0 0 0 0.0980392 0 0 0 0 0.0980392 0 0 0 0.16 0"/>
<feBlend mode="normal" in2="BackgroundImageFix" result="effect1_dropShadow_1462_348"/>
<feBlend mode="normal" in="SourceGraphic" in2="effect1_dropShadow_1462_348" result="shape"/>
</filter>
<radialGradient id="paint0_radial_1462_348" cx="0" cy="0" r="1" gradientUnits="userSpaceOnUse" gradientTransform="translate(894.168 185.211) rotate(39.505) scale(384.125)">
<stop stop-color="#DFDFDF"/>
<stop offset="0.443175" stop-color="#4C4C4C"/>
<stop offset="1" stop-color="#333333"/>
</radialGradient>
<clipPath id="clip0_1462_348">
<rect width="1104" height="338" fill="white"/>
</clipPath>
</defs>
</svg>
