<svg width="810" height="43" viewBox="0 0 810 43" fill="none" xmlns="http://www.w3.org/2000/svg">
<path fill-rule="evenodd" clip-rule="evenodd" d="M2.50452 29.5681H7.517V17.7824H10.8615L11.3044 13.7215H7.517L7.5233 11.6889C7.5233 10.6297 7.62644 10.062 9.19069 10.062H11.2815V6H7.93642C3.91865 6 2.50509 7.96976 2.50509 11.2831V13.7221H0V17.7829H2.50452V29.5681ZM47.4392 17.1501C45.7369 17.1501 45.3484 18.0579 45.3484 19.1822V19.8139H49.5277V19.1822C49.5277 18.0579 49.1392 17.1501 47.4392 17.1501ZM63.7338 17.5597C62.7116 17.5597 61.9747 17.8853 61.2275 18.2171V25.7232C61.9432 25.7894 62.3534 25.7894 63.0324 25.7894C65.486 25.7894 65.8223 24.698 65.8223 23.174V19.5891C65.8223 18.4636 65.4378 17.5597 63.7338 17.5597ZM17.2589 26.3143C16.3055 26.3143 15.8734 25.8523 15.8734 24.9629C15.8734 24.0685 16.3387 23.877 17.3976 23.877H19.6339V25.6575C19.5617 25.6897 19.4908 25.7218 19.4208 25.7535L19.4207 25.7536L19.4207 25.7536L19.4207 25.7536C18.7662 26.05 18.1827 26.3143 17.2589 26.3143ZM79.5843 17.5597C77.8791 17.5597 77.2883 18.4636 77.2883 19.5891V23.6961C77.2883 24.8243 77.8791 25.731 79.5843 25.731C81.2849 25.731 81.8802 24.8243 81.8802 23.6961V19.5891C81.8796 18.4636 81.2843 17.5597 79.5843 17.5597ZM24.6475 29.5987H20.4699L20.2894 28.5724C18.382 29.5987 16.6796 29.7651 15.5566 29.7651C12.4928 29.7651 10.8621 27.777 10.8621 25.0275C10.8621 21.7837 12.765 20.626 16.1691 20.626H19.6339V19.9247C19.6339 18.2688 19.4385 17.7829 16.8171 17.7829H12.5312L12.95 13.7221H17.6348C23.3864 13.7221 24.6475 15.487 24.6475 19.9575V29.5987ZM34.2565 17.5525C35.5073 17.5525 36.2539 17.6477 38.8536 18.0807V14.1217C36.5765 13.6236 35.0931 13.4928 33.8394 13.4928C28.4579 13.4928 26.3189 16.2468 26.3189 20.2213V23.066C26.3189 27.0373 28.4579 29.7863 33.8394 29.7863C35.0931 29.7863 36.5765 29.656 38.8536 29.1601V25.1989C36.2539 25.6336 35.5073 25.7304 34.2565 25.7304C32.0098 25.7304 31.3309 25.2468 31.3309 23.3933V19.8874C31.3309 18.034 32.0098 17.5525 34.2565 17.5525ZM54.5396 23.066H45.3478V23.3933C45.3478 25.2468 46.0274 25.7304 48.2735 25.7304C50.2927 25.7304 51.5252 25.6336 54.1202 25.1989V29.1601C51.6174 29.656 50.3133 29.7863 47.8581 29.7863C42.476 29.7863 40.3359 27.0373 40.3359 23.066V19.8134C40.3359 16.3386 41.9236 13.4928 47.4386 13.4928C52.9536 13.4928 54.5396 16.3058 54.5396 19.8134V23.066ZM62.8628 29.779C69.7043 29.779 70.8336 26.9794 70.8336 23.1412H70.8331V19.1827C70.8331 15.6757 69.9982 13.4933 64.9869 13.4933C63.7114 13.4933 62.3099 13.692 61.2269 14.0827V6.40798L56.2162 7.22004V29.1607C58.943 29.5681 60.3921 29.779 62.8628 29.779ZM86.8961 23.2247C86.8961 26.5358 85.4889 29.7473 79.6009 29.7473C73.71 29.7473 72.2764 26.5358 72.2764 23.2247V20.0276C72.2764 16.7148 73.71 13.5028 79.6009 13.5028C85.4889 13.5028 86.8961 16.7148 86.8961 20.0276V23.2247ZM95.6519 29.7473C101.539 29.7473 102.948 26.5358 102.948 23.2247V20.0276C102.948 16.7148 101.539 13.5028 95.6519 13.5028C89.7611 13.5028 88.3274 16.7148 88.3274 20.0276V23.2247C88.3274 26.5358 89.7611 29.7473 95.6519 29.7473ZM119.421 29.5681H113.989L109.396 22.1193V29.5681H104.383V7.21948L109.396 6.40742V20.7946L113.989 13.7221H119.421L114.406 21.4403L119.421 29.5681ZM93.3416 19.5891C93.3416 18.4636 93.9324 17.5597 95.6347 17.5597C97.3348 17.5597 97.9364 18.4636 97.9364 19.5891V23.6961C97.9364 24.8243 97.3348 25.731 95.6347 25.731C93.9324 25.731 93.3416 24.8243 93.3416 23.6961V19.5891ZM122.281 26.7885C123.125 26.7885 123.798 27.457 123.798 28.2918C123.798 29.1395 123.125 29.8007 122.275 29.8007C121.429 29.8007 120.744 29.1395 120.744 28.2918C120.744 27.457 121.429 26.7885 122.275 26.7885H122.281ZM121.039 28.2918C121.039 27.5905 121.595 27.0223 122.275 27.0223H122.281C122.968 27.0223 123.516 27.5911 123.516 28.2985C123.516 29.0059 122.968 29.5737 122.281 29.567C121.596 29.567 121.039 29.0059 121.039 28.2918ZM121.987 29.1668H121.712V27.4892L121.725 27.4874C121.865 27.4686 122 27.4503 122.2 27.4503C122.461 27.4503 122.632 27.5037 122.737 27.5766C122.838 27.6507 122.893 27.7636 122.893 27.9234C122.893 28.1449 122.743 28.2779 122.558 28.3319V28.3447C122.708 28.372 122.811 28.5045 122.846 28.751C122.886 29.0121 122.928 29.1117 122.955 29.1662H122.666C122.626 29.1117 122.584 28.9586 122.55 28.7377C122.509 28.5245 122.398 28.4443 122.178 28.4443H121.987V29.1668H121.987ZM122.186 28.2384H121.987V27.6696C122.034 27.6635 122.096 27.6568 122.186 27.6568C122.495 27.6568 122.604 27.8032 122.604 27.9501C122.604 28.1577 122.412 28.2384 122.186 28.2384Z" fill="#7F7F7F"/>
<path fill-rule="evenodd" clip-rule="evenodd" d="M200.535 2.29397L200.535 2.29397C200.58 2.34272 200.624 2.39161 200.672 2.43698C200.808 2.55519 200.926 2.69349 201.044 2.83173C201.15 2.95675 201.257 3.08172 201.377 3.19177C201.582 3.3878 201.739 3.61821 201.896 3.84908L201.896 3.84909L201.896 3.84912C201.978 3.96914 202.059 4.08928 202.148 4.20477C202.6 4.88673 202.999 5.61504 203.205 6.40955C203.418 6.95247 203.451 7.54173 203.438 8.12437C203.451 8.65405 203.305 9.1771 203.066 9.65381C202.653 10.3755 201.909 10.8588 201.131 11.117C200.16 11.3488 199.089 11.3885 198.152 10.978C198.06 10.9277 197.964 10.8818 197.868 10.8357C197.612 10.7121 197.353 10.5877 197.154 10.3755C196.523 9.85906 196.157 9.0182 196.277 8.20383C196.463 6.75384 197.334 5.5091 198.265 4.43651C198.312 4.52316 198.312 4.61768 198.311 4.71256V4.71257C198.311 4.79169 198.311 4.87106 198.338 4.94632C198.418 5.29723 198.544 5.668 198.81 5.9196C198.857 5.87636 198.905 5.83312 198.953 5.78974L198.953 5.78955C199.235 5.53407 199.522 5.27368 199.761 4.97943C200.014 4.60865 200.22 4.19815 200.306 3.76117C200.308 3.70112 200.311 3.64075 200.313 3.58018L200.313 3.58006L200.313 3.57993L200.313 3.5798L200.313 3.57967L200.313 3.57953C200.335 3.07935 200.356 2.56497 200.166 2.09269L200.186 2C200.326 2.06508 200.43 2.1791 200.535 2.29397ZM188.005 8.61432C188.672 8.62 189.34 8.61838 190.008 8.61676H190.008H190.008H190.008H190.008H190.008H190.008H190.008H190.008H190.008C190.899 8.61459 191.79 8.61243 192.679 8.62757C192.679 9.06738 192.681 9.5072 192.682 9.94702C192.684 11.0499 192.687 12.1527 192.673 13.2556C193.461 13.2698 194.249 13.2671 195.039 13.2644H195.039C195.356 13.2633 195.673 13.2622 195.991 13.2622C196.004 13.3814 196.011 13.5006 196.011 13.6198C196.005 14.1975 196.005 14.774 196.006 15.3502V15.3504V15.3505V15.3505V15.3506V15.3506V15.3507V15.3507V15.3508V15.3508V15.3508C196.007 16.0423 196.008 16.7336 195.997 17.4268C195.363 17.4344 194.731 17.4333 194.098 17.4322C193.623 17.4314 193.149 17.4306 192.673 17.4334C192.683 18.5755 192.681 19.716 192.679 20.8565C192.678 21.9969 192.676 23.1374 192.686 24.2795C192.726 24.4781 192.753 24.6767 192.746 24.882C192.733 25.0014 192.775 25.107 192.818 25.213C192.841 25.2717 192.865 25.3305 192.879 25.3918C192.965 25.7891 193.185 26.1466 193.437 26.4578C193.81 26.8286 194.288 27.0868 194.8 27.1993C195.266 27.2722 195.731 27.3119 196.204 27.2788C196.23 27.3582 196.243 27.4377 196.243 27.5237C196.237 28.7155 196.237 29.9073 196.243 31.0924C196.243 31.2345 196.219 31.3765 196.195 31.5143L196.184 31.5823C195.96 31.5823 195.736 31.5875 195.512 31.5926C195.064 31.6029 194.617 31.6132 194.169 31.5823C194.02 31.5502 193.867 31.5356 193.715 31.521H193.715C193.458 31.4964 193.201 31.4718 192.959 31.3638C191.888 31.1122 190.864 30.5826 190.1 29.7814C188.976 28.7023 188.371 27.1795 188.125 25.6699C188.084 25.568 188.083 25.4562 188.082 25.3436C188.082 25.2731 188.082 25.2024 188.071 25.1336C188.005 24.8734 188.006 24.6031 188.008 24.3347C188.008 24.2275 188.009 24.1205 188.005 24.0146C187.998 18.8834 187.998 13.7456 188.005 8.61432ZM211.172 12.8595C211.019 12.8629 210.866 12.8663 210.719 12.9047C209.522 13.0702 208.352 13.4873 207.361 14.1759C206.862 14.453 206.452 14.8682 206.057 15.2687L206.024 15.3014C205.506 15.8112 205.107 16.427 204.774 17.0692C204.435 17.8041 204.129 18.5722 204.01 19.3799C203.979 19.4783 203.975 19.5823 203.971 19.6874C203.967 19.8088 203.963 19.9315 203.917 20.0486C203.893 20.3546 203.893 20.6604 203.892 20.9663C203.892 21.0974 203.892 21.2285 203.89 21.3596C203.896 22.8206 203.894 24.2828 203.892 25.7452V25.7453V25.7455V25.7456V25.7457V25.7458V25.7459V25.746V25.7461C203.89 27.6965 203.888 29.6471 203.903 31.5956C204.759 31.5848 205.615 31.5858 206.471 31.5868C207.184 31.5876 207.898 31.5884 208.611 31.5824C208.615 29.2251 208.614 26.8648 208.612 24.5056V24.5048V24.5041V24.5034V24.5026V24.5019V24.5011V24.5004V24.4997C208.612 23.3224 208.611 22.1453 208.611 20.969C208.598 20.1745 208.77 19.327 209.296 18.7046C209.615 18.261 210.067 17.9432 210.552 17.7115C211.217 17.44 211.942 17.3805 212.654 17.4268C212.776 17.4706 212.905 17.475 213.036 17.4796C213.084 17.4812 213.131 17.4829 213.179 17.4864L213.209 17.4946C213.539 17.5846 213.879 17.6776 214.17 17.8704C214.246 17.9416 214.331 18.0055 214.415 18.0695C214.543 18.1662 214.671 18.2634 214.775 18.3868C215.067 18.7311 215.28 19.135 215.446 19.5587C215.539 19.9759 215.619 20.3996 215.613 20.8366C215.613 22.0195 215.612 23.2032 215.611 24.3874V24.3889V24.3903V24.3918V24.3933V24.3948V24.3962V24.3977V24.3992C215.61 26.7768 215.608 29.1565 215.613 31.536C215.626 31.5493 215.659 31.5758 215.672 31.5824C216.253 31.5849 216.834 31.5846 217.415 31.5842H217.415H217.415H217.415H217.415H217.415H217.415H217.415H217.416H217.416C218.385 31.5837 219.354 31.5832 220.327 31.5956C220.334 30.1391 220.333 28.6825 220.332 27.226C220.331 26.1335 220.331 25.0409 220.334 23.9484C220.331 23.5225 220.332 23.0958 220.333 22.6689V22.6687C220.334 21.8149 220.336 20.9601 220.314 20.1083C220.24 19.5323 220.161 18.9496 220.008 18.3868C219.762 17.6188 219.476 16.8574 219.043 16.1754C218.954 16.0175 218.837 15.8827 218.721 15.748C218.613 15.6229 218.505 15.4979 218.419 15.3544C217.401 14.2024 215.998 13.4145 214.515 13.057C214.419 13.0377 214.323 13.0162 214.226 12.9946L214.226 12.9946L214.226 12.9946L214.226 12.9946L214.226 12.9946L214.226 12.9946L214.226 12.9946L214.226 12.9945L214.226 12.9945C213.925 12.9271 213.626 12.86 213.319 12.865C213.142 12.8589 212.966 12.8461 212.789 12.8332L212.789 12.8332C212.387 12.804 211.983 12.7746 211.576 12.8252C211.445 12.8534 211.308 12.8564 211.172 12.8595ZM266.439 12.865C266.628 12.8606 266.817 12.8457 267.005 12.8308C267.392 12.8001 267.779 12.7695 268.168 12.8319C268.387 12.8596 268.608 12.8648 268.829 12.8699C268.924 12.872 269.018 12.8742 269.112 12.8782C269.151 13.247 269.145 13.6184 269.14 13.9891C269.137 14.1975 269.134 14.4056 269.139 14.6129V16.9302L269.139 16.9469L269.139 16.9663C269.14 16.9833 269.14 17.0005 269.141 17.0176V17.018C269.144 17.1361 269.147 17.2559 269.099 17.3672C269.001 17.2954 268.882 17.2856 268.764 17.2758C268.697 17.2703 268.63 17.2648 268.567 17.248C267.862 17.1885 267.137 17.2216 266.473 17.4865C265.681 17.7579 264.99 18.3339 264.604 19.0821C264.551 19.1478 264.522 19.2268 264.494 19.3058C264.463 19.3941 264.431 19.4823 264.365 19.5522C264.159 20.2937 264.145 21.0684 264.159 21.8298C264.156 22.994 264.158 24.1574 264.16 25.3205C264.163 27.4119 264.167 29.5024 264.145 31.5957C263.3 31.5849 262.453 31.5858 261.606 31.5868H261.605H261.605C260.899 31.5876 260.191 31.5885 259.484 31.5824C259.479 31.5772 259.473 31.57 259.466 31.5623L259.461 31.5561C259.455 31.5494 259.45 31.5427 259.445 31.5371L259.44 31.5319L259.438 31.5295V20.9029C259.427 20.6674 259.45 20.4357 259.473 20.2048L259.473 20.2046C259.494 20.0005 259.514 19.7969 259.511 19.5919C259.573 19.4675 259.59 19.3317 259.606 19.1965C259.618 19.1015 259.63 19.0068 259.657 18.9166C259.99 17.2415 260.874 15.6591 262.217 14.5799C262.379 14.3981 262.585 14.2756 262.791 14.1528C262.915 14.0789 263.04 14.0049 263.155 13.9178C264.145 13.3152 265.296 13.0239 266.439 12.865ZM200.012 13.2643C199.182 13.2669 198.351 13.2696 197.52 13.2556C197.517 15.8113 197.517 18.367 197.517 20.9218C197.517 23.4767 197.517 26.0307 197.513 28.5831C197.519 28.9716 197.517 29.3611 197.515 29.7508V29.7508V29.7508V29.7508V29.7508V29.7509V29.7509V29.7509V29.7509V29.7509V29.7509V29.751V29.751C197.512 30.3641 197.509 30.9778 197.533 31.589H202.135C202.228 31.6089 202.228 31.4897 202.228 31.4301C202.223 27.3962 202.225 23.3623 202.226 19.3265C202.227 17.3079 202.228 15.2887 202.228 13.2688C201.489 13.2595 200.751 13.2619 200.012 13.2643ZM246.758 25.5441C246.93 25.4782 247.101 25.4036 247.271 25.3289C247.494 25.231 247.718 25.133 247.948 25.0542C248.24 24.9416 248.53 24.8175 248.819 24.6934C249.108 24.5692 249.397 24.4451 249.69 24.3325C250.424 23.995 251.174 23.6916 251.923 23.3882L251.923 23.3882L251.923 23.3881C252.408 23.1917 252.893 22.9954 253.374 22.7898C253.509 22.7161 253.654 22.6609 253.798 22.6057C253.965 22.542 254.131 22.4782 254.284 22.386C254.373 22.3519 254.461 22.3188 254.549 22.2858L254.549 22.2857C254.786 22.1967 255.023 22.1081 255.255 22.0019C255.41 21.9101 255.577 21.8489 255.744 21.7877C255.878 21.7385 256.012 21.6894 256.14 21.6245C256.283 21.5667 256.425 21.5061 256.567 21.4455L256.567 21.4454L256.567 21.4454L256.567 21.4454L256.567 21.4454L256.568 21.4453C256.799 21.3463 257.031 21.2473 257.27 21.1611C257.471 21.049 257.685 20.9665 257.898 20.8842C258.1 20.806 258.302 20.7279 258.493 20.6247C258.535 20.5965 258.586 20.5821 258.637 20.5679C258.718 20.5454 258.799 20.5229 258.839 20.446C258.772 20.3521 258.766 20.2443 258.76 20.1362V20.1362C258.755 20.0615 258.751 19.9867 258.726 19.9163L258.696 19.8091L258.696 19.8087C258.62 19.5348 258.545 19.2653 258.48 18.996C258.181 18.0757 257.749 17.1951 257.164 16.4271C256.452 15.4009 255.475 14.5732 254.391 13.9641C253.679 13.5338 252.882 13.2888 252.084 13.0769C251.893 13.0538 251.705 13.0138 251.518 12.9738C251.221 12.9107 250.926 12.8477 250.621 12.8518C250.169 12.7922 249.703 12.7657 249.258 12.8452C248.466 12.8584 247.708 13.0504 246.957 13.2689C245.647 13.7258 244.404 14.421 243.4 15.381C243.233 15.5358 243.083 15.7049 242.934 15.8735L242.933 15.8736C242.814 16.008 242.695 16.142 242.569 16.2682C242.123 16.8376 241.717 17.4401 241.412 18.089C240.979 19.0622 240.567 20.0819 240.521 21.1611C240.406 21.566 240.41 21.9872 240.414 22.4055C240.415 22.5207 240.416 22.6357 240.414 22.7501C240.401 23.0878 240.454 23.4188 240.521 23.7433C240.508 23.9635 240.558 24.173 240.607 24.3821C240.635 24.4997 240.663 24.6172 240.68 24.7364C240.781 25.3634 241.041 25.948 241.3 26.5282L241.342 26.6238L241.392 26.7359C242.176 28.3381 243.413 29.7285 244.962 30.6356C245.98 31.258 247.11 31.7016 248.294 31.8671C249.258 32.0194 250.248 32.0458 251.219 31.9201C251.411 31.9353 251.598 31.8934 251.786 31.8514C251.924 31.8204 252.062 31.7894 252.203 31.781C253.62 31.45 255.009 30.8541 256.08 29.8543C256.399 29.6027 256.698 29.3048 256.951 28.9869C257.367 28.5658 257.669 28.0559 257.969 27.5503L257.988 27.5171C258.281 26.9675 258.52 26.3849 258.693 25.7824C258.618 25.7505 258.535 25.7528 258.457 25.7549C258.438 25.7554 258.419 25.756 258.401 25.756C257.621 25.7593 256.844 25.7576 256.066 25.756C255.291 25.7543 254.516 25.7526 253.739 25.756C253.649 25.756 253.615 25.8314 253.58 25.9079C253.558 25.9555 253.536 26.0035 253.5 26.034C253.234 26.418 252.895 26.7425 252.536 27.047C252.017 27.4179 251.405 27.6165 250.8 27.7952C250.756 27.8008 250.711 27.8043 250.668 27.8077L250.668 27.8077C250.555 27.8166 250.447 27.8252 250.342 27.8681C250.022 27.8908 249.698 27.8843 249.373 27.8778L249.211 27.8747C248.792 27.7953 248.373 27.7026 247.968 27.5702C247.343 27.2524 246.731 26.8882 246.259 26.3717C246.222 26.3261 246.177 26.2838 246.132 26.2412C246.034 26.1478 245.934 26.0534 245.907 25.9215C245.941 25.9066 245.974 25.889 246.008 25.8712C246.079 25.8338 246.151 25.7959 246.232 25.7824C246.337 25.7644 246.428 25.7111 246.52 25.6578C246.596 25.613 246.673 25.5682 246.758 25.5441ZM244.812 21.7146C244.797 21.8791 244.783 22.0447 244.843 22.1939C245.554 21.8562 246.279 21.5517 247.01 21.267C247.801 20.9058 248.605 20.5782 249.41 20.2504L249.41 20.2504C249.992 20.0131 250.575 19.7758 251.153 19.5256C251.229 19.5011 251.303 19.4665 251.376 19.4319C251.48 19.3825 251.585 19.3333 251.698 19.3138C251.919 19.1884 252.154 19.096 252.389 19.0037C252.613 18.9156 252.837 18.8277 253.048 18.7113C253.076 18.6928 253.115 18.6785 253.155 18.6637C253.26 18.6253 253.373 18.5838 253.32 18.4596C252.609 17.5923 251.505 17.1222 250.408 16.9699C250.31 16.9684 250.212 16.9643 250.114 16.9603C249.791 16.9469 249.467 16.9335 249.151 17.0097C248.821 17.0097 248.508 17.1157 248.195 17.2219C248.08 17.261 247.964 17.3002 247.848 17.334C247.693 17.4047 247.544 17.4871 247.394 17.5695C247.32 17.6107 247.245 17.6518 247.17 17.6916C246.963 17.8033 246.793 17.9604 246.623 18.1179C246.54 18.1936 246.458 18.2695 246.372 18.3404C245.8 18.9298 245.408 19.6646 245.089 20.4128C245.018 20.6008 244.977 20.795 244.936 20.9884L244.936 20.9884L244.936 20.9885L244.936 20.9885L244.936 20.9886C244.903 21.1425 244.87 21.2961 244.823 21.4457C244.827 21.533 244.819 21.6236 244.812 21.7146ZM239.889 5.16481C239.057 5.15724 238.225 5.15833 237.393 5.15941C236.769 5.16022 236.144 5.16103 235.52 5.15819C235.486 5.16244 235.45 5.16055 235.414 5.15865C235.337 5.15464 235.26 5.15061 235.201 5.20454C235.209 6.98041 235.208 8.75843 235.207 10.5362V10.5404V10.5405V10.5406C235.206 11.8765 235.205 13.2122 235.208 14.5467C235.206 14.582 235.207 14.6173 235.208 14.6524C235.211 14.7292 235.213 14.805 235.181 14.8777C235.093 14.8645 235.034 14.8042 234.974 14.7438C234.945 14.7137 234.915 14.6835 234.882 14.6592C234.211 14.0832 233.459 13.5933 232.621 13.3086C232.056 13.0901 231.464 12.9775 230.866 12.8716L230.666 12.8676C230.053 12.855 229.436 12.8424 228.818 12.8782L228.795 12.8846C228.73 12.9022 228.67 12.9187 228.605 12.9246C227.083 13.1364 225.66 13.8449 224.489 14.8181C223.838 15.4273 223.186 16.0629 222.727 16.8309C222.189 17.5923 221.843 18.4663 221.511 19.327L221.501 19.3605C221.351 19.892 221.203 20.4177 221.138 20.9624C221.035 21.6619 221.052 22.3747 221.068 23.0826L221.068 23.0833L221.068 23.084L221.068 23.0846C221.072 23.2404 221.076 23.396 221.078 23.5512C221.091 23.6371 221.109 23.721 221.128 23.8045C221.158 23.9399 221.187 24.074 221.191 24.2133C221.311 24.9416 221.524 25.6566 221.816 26.3386C222.026 26.8964 222.346 27.4111 222.662 27.9194L222.662 27.9194L222.662 27.9199C222.718 28.0087 222.773 28.0973 222.827 28.1858C222.864 28.2331 222.901 28.2807 222.938 28.3283L222.938 28.3291C223.16 28.6147 223.384 28.903 223.651 29.1525C223.713 29.2129 223.774 29.2739 223.836 29.3351L223.836 29.3353C224.24 29.7376 224.653 30.1479 225.161 30.4237C225.85 30.945 226.665 31.256 227.46 31.5595L227.468 31.5625C227.59 31.5845 227.708 31.626 227.826 31.6673C227.992 31.7256 228.158 31.7838 228.332 31.7876C228.441 31.7962 228.547 31.8233 228.652 31.8502L228.652 31.8502C228.79 31.8857 228.927 31.9209 229.071 31.9134C229.136 31.9068 229.199 31.9262 229.263 31.9459C229.327 31.966 229.392 31.9863 229.463 31.9796C230.108 31.9994 230.759 31.9994 231.404 31.9796C231.461 31.9796 231.517 31.9666 231.574 31.9534C231.625 31.9417 231.677 31.9297 231.73 31.9266C232.004 31.9307 232.265 31.8673 232.526 31.804L232.526 31.804C232.69 31.7642 232.853 31.7245 233.02 31.7015C233.191 31.6395 233.365 31.5841 233.54 31.5286C233.944 31.4005 234.349 31.2718 234.716 31.0593C235.494 30.7018 236.198 30.1986 236.83 29.6291C237.628 28.9406 238.273 28.0799 238.752 27.1397C238.796 27.0509 238.841 26.9627 238.886 26.8746C239.052 26.5486 239.219 26.2229 239.324 25.8684C239.576 25.2461 239.689 24.584 239.776 23.9285C239.887 23.4888 239.887 23.0336 239.886 22.5777C239.886 22.4364 239.886 22.2951 239.889 22.1541L239.889 5.16481ZM234.543 25.0939C234.856 24.4649 235.121 23.7962 235.161 23.0943C235.334 21.6841 234.942 20.2208 234.091 19.0822C233.988 18.9861 233.898 18.8785 233.808 18.7709C233.718 18.6633 233.629 18.5558 233.526 18.4598C232.967 17.9301 232.256 17.5726 231.538 17.3144L231.483 17.3045C230.955 17.2079 230.402 17.107 229.869 17.2415C229.692 17.2415 229.523 17.2974 229.355 17.3528C229.265 17.3828 229.175 17.4126 229.084 17.4335C228.393 17.7182 227.708 18.0823 227.209 18.6517C227.15 18.7269 227.087 18.7988 227.023 18.8708C226.886 19.0268 226.748 19.1831 226.657 19.3734C226.494 19.5786 226.386 19.8141 226.278 20.0498C226.219 20.1791 226.16 20.3084 226.092 20.4328C226.048 20.5526 226.014 20.6764 225.981 20.7998L225.981 20.7999L225.981 20.8L225.981 20.8C225.953 20.9016 225.925 21.0029 225.892 21.1015C225.74 21.7308 225.761 22.3931 225.78 23.0431L225.786 23.2268C225.813 23.3301 225.828 23.4361 225.844 23.5421C225.869 23.7216 225.895 23.9012 225.979 24.0677C226.098 24.5709 226.358 25.0277 226.617 25.4713C226.943 25.9282 227.302 26.3718 227.767 26.6962C227.944 26.8769 228.169 26.9858 228.392 27.0942C228.48 27.1367 228.567 27.1792 228.652 27.2259C228.781 27.2939 228.918 27.3387 229.055 27.3833L229.055 27.3833C229.171 27.4212 229.287 27.4589 229.396 27.5106C229.868 27.6446 230.363 27.6279 230.849 27.6114C230.939 27.6084 231.029 27.6053 231.119 27.6033C231.298 27.5371 231.484 27.5304 231.671 27.5304C231.739 27.4368 231.846 27.406 231.954 27.3749C232.014 27.3576 232.075 27.3402 232.129 27.3119C233.133 26.8352 234.018 26.0804 234.543 25.0939ZM266.399 29.2651H268.142C268.148 29.3975 268.148 29.5299 268.142 29.6623C268.042 29.6756 267.942 29.6739 267.843 29.6722C267.744 29.6706 267.646 29.6689 267.55 29.6822C267.535 30.0227 267.537 30.3611 267.539 30.6998V30.6999C267.541 30.9538 267.542 31.2079 267.537 31.4632C267.357 31.45 267.178 31.45 267.005 31.4566C266.985 30.9871 266.991 30.511 266.998 30.0416L266.998 30.0397C266.998 30.0326 266.998 30.0254 266.998 30.0182C266.998 30.0051 266.999 29.992 266.999 29.9787C267.003 29.8692 267.007 29.7546 266.911 29.6822C266.825 29.669 266.739 29.6706 266.652 29.6723C266.566 29.6739 266.479 29.6756 266.393 29.6623C266.386 29.5299 266.386 29.3975 266.399 29.2651ZM268.552 29.269C268.522 29.2699 268.491 29.2708 268.461 29.2717C268.458 29.5553 268.46 29.8379 268.461 30.1198C268.464 30.5421 268.466 30.9629 268.454 31.3838C268.55 31.4692 268.676 31.4593 268.801 31.4496C268.841 31.4465 268.881 31.4434 268.92 31.4434C268.954 31.2626 268.949 31.0796 268.943 30.897C268.939 30.7652 268.935 30.6336 268.946 30.5032C268.953 30.4343 268.948 30.3628 268.944 30.2912C268.935 30.1634 268.926 30.0352 268.986 29.9206C269.046 30.0265 269.082 30.1448 269.117 30.2626C269.164 30.4173 269.21 30.5712 269.312 30.6952C269.312 30.8396 269.368 30.9674 269.424 31.096C269.469 31.1975 269.514 31.2994 269.531 31.4103C269.664 31.4235 269.791 31.4235 269.924 31.4036C269.975 31.1987 270.051 31.002 270.127 30.806C270.218 30.5715 270.309 30.338 270.356 30.0927C270.394 30.0382 270.441 29.9971 270.49 29.9547C270.501 29.9456 270.511 29.9365 270.522 29.9271C270.514 30.2205 270.513 30.5161 270.512 30.8128C270.512 31.0117 270.511 31.2109 270.509 31.4102C270.675 31.4235 270.835 31.4235 270.994 31.4102C270.994 31.1746 270.996 30.9375 270.997 30.6998C271 30.2231 271.003 29.7444 270.994 29.2717C270.755 29.2584 270.515 29.265 270.283 29.2717C270.077 29.755 269.87 30.2449 269.737 30.7614C269.763 30.666 269.715 30.5935 269.668 30.5207C269.652 30.4974 269.637 30.4742 269.624 30.4502C269.591 30.3376 269.55 30.2283 269.508 30.119C269.466 30.0098 269.425 29.9006 269.392 29.7881C269.373 29.7161 269.336 29.6516 269.299 29.5877C269.245 29.4929 269.191 29.3995 269.199 29.2848C268.983 29.2558 268.768 29.2624 268.552 29.269Z" fill="#7F7F7F"/>
<path fill-rule="evenodd" clip-rule="evenodd" d="M370.539 27.2433L370.539 27.2434C370.603 27.403 370.668 27.5626 370.733 27.7179C371.24 29.1628 371.396 30.5286 371.086 31.8947C370.656 34.7838 368.743 37.2813 366.009 38.3752C365.033 38.805 363.94 39 362.847 39C362.534 39 362.143 38.9614 361.831 38.9216C360.542 38.7656 359.215 38.3366 357.926 37.5949C356.364 36.6967 354.802 35.409 353.084 33.535C351.366 35.409 349.843 36.6967 348.242 37.5949C346.953 38.3366 345.625 38.7656 344.337 38.9216C344.024 38.961 343.634 39 343.321 39C342.228 39 341.174 38.805 340.158 38.3752C337.463 37.2813 335.511 34.8228 335.082 31.8947C334.886 30.4888 335.042 29.1223 335.55 27.6781C335.745 27.1708 335.94 26.7024 336.135 26.2726C336.274 25.9607 336.413 25.6564 336.549 25.3597L336.549 25.3596L336.549 25.3594C336.718 24.9884 336.882 24.6292 337.034 24.2817L337.073 24.2041C339.768 18.3484 342.696 12.4146 345.703 6.55928L345.821 6.3245C346.14 5.71668 346.452 5.105 346.757 4.48959C347.147 3.78643 347.577 3.04467 348.163 2.34229C349.451 0.859153 351.208 0 353.161 0C355.074 0 356.871 0.859153 358.12 2.42068C358.696 3.06881 359.073 3.74907 359.434 4.40223L359.526 4.56798C359.83 5.18377 360.142 5.79547 360.463 6.40289L360.58 6.63767C363.626 12.493 366.515 18.4264 369.21 24.2825L369.249 24.3215C369.401 24.6703 369.566 25.0315 369.737 25.4049L369.737 25.4065L369.737 25.4066L369.738 25.4071L369.738 25.4092C369.872 25.7028 370.01 26.0039 370.147 26.3124C370.278 26.5996 370.408 26.9214 370.538 27.2432L370.539 27.2433ZM400.879 9.79933C400.879 11.2049 399.746 12.3366 398.34 12.3366C396.934 12.3366 395.802 11.2049 395.802 9.79933C395.802 8.3938 396.896 7.26204 398.34 7.26204C399.786 7.30104 400.879 8.43319 400.879 9.79933ZM390.413 14.9137V15.5385C390.413 15.5385 389.203 13.9762 386.626 13.9762C382.37 13.9762 379.05 17.2166 379.05 21.7058C379.05 26.1564 382.331 29.4354 386.626 29.4354C389.242 29.4354 390.413 27.8349 390.413 27.8349V28.4983C390.413 28.8107 390.648 29.0443 390.96 29.0443H394.123V14.3654H390.96C390.648 14.3665 390.413 14.6403 390.413 14.9137ZM387.251 25.9224C388.656 25.9224 389.828 25.1806 390.413 24.3215V19.0901C389.867 18.2704 388.618 17.4896 387.251 17.4896C384.752 17.4896 382.838 19.0511 382.838 21.7058C382.838 24.3609 384.752 25.9224 387.251 25.9224ZM396.466 14.3665H400.215V29.0454H396.466V14.3665ZM448.676 15.5381C448.676 15.5381 449.886 13.9758 452.464 13.9758C456.681 13.9758 460 17.2564 460 21.707C460 26.1576 456.681 29.4358 452.424 29.4358C449.847 29.4358 448.637 27.8353 448.637 27.8353V28.4987C448.637 28.7721 448.403 29.0455 448.09 29.0455H444.927V7.30104H448.676V15.5381ZM451.839 25.883C450.394 25.883 449.262 25.142 448.676 24.2825V19.0511C449.262 18.2704 450.511 17.4506 451.839 17.4506C454.338 17.4506 456.251 19.0121 456.251 21.6668C456.251 24.3215 454.338 25.883 451.839 25.883ZM442.975 29.0844V20.34C442.975 17.8804 442.467 16.4752 441.14 15.3821C440.046 14.4453 438.679 13.9762 437.039 13.9762C435.594 13.9762 434.15 14.4059 433.056 15.5385V14.9137C433.056 14.6403 432.822 14.3669 432.509 14.3669H429.542V29.0458H433.29V18.8175C434.033 17.9584 435.205 17.3726 436.337 17.3726C438.445 17.3726 439.226 18.3491 439.226 20.769V29.0844H442.975ZM420.442 13.9758C417.866 13.9758 416.655 15.5381 416.655 15.5381V7.30104H412.906V29.0455H416.069C416.381 29.0455 416.616 28.7721 416.616 28.4987V27.8353C416.616 27.8353 417.827 29.4358 420.403 29.4358C424.66 29.4358 427.979 26.1576 427.979 21.707C428.018 17.256 424.699 13.9758 420.442 13.9758ZM416.655 24.2825C417.241 25.142 418.373 25.883 419.817 25.883C422.317 25.883 424.23 24.3215 424.23 21.6668C424.23 19.0121 422.317 17.4506 419.817 17.4506C418.49 17.4506 417.241 18.2704 416.655 19.0511V24.2825ZM409.665 13.9758C410.797 13.9758 411.383 14.1715 411.383 14.1715V17.6456C411.383 17.6456 408.259 16.5914 406.307 18.8171V29.0841H402.558V14.3665H405.721C406.033 14.3665 406.267 14.6399 406.267 14.9133V15.5381C406.971 14.7179 408.494 13.9758 409.665 13.9758ZM353.122 29.7478C351.013 27.0931 349.646 24.5949 349.178 22.4873C348.983 21.5892 348.943 20.8084 349.061 20.1057C349.138 19.4809 349.373 18.9341 349.686 18.4657C350.428 17.4124 351.677 16.7482 353.122 16.7482C354.567 16.7482 355.856 17.373 356.559 18.4657C356.871 18.9341 357.106 19.4813 357.184 20.1057C357.301 20.8088 357.262 21.6282 357.067 22.4873C356.597 24.5559 355.23 27.0545 353.122 29.7478ZM365.149 36.1507C367.062 35.37 368.429 33.6126 368.702 31.5827C368.858 30.568 368.741 29.5914 368.43 28.5775C368.348 28.3057 368.229 28.0344 368.098 27.7371C368.041 27.6068 367.981 27.4716 367.922 27.3291C367.766 27.0172 367.62 26.6862 367.474 26.3552C367.327 26.0224 367.18 25.6896 367.024 25.376V25.337C364.284 19.4279 361.433 13.5712 358.472 7.76981L358.354 7.53504C358.201 7.24814 358.048 6.95167 357.895 6.65493C357.736 6.34661 357.577 6.038 357.417 5.73952C357.105 5.11592 356.754 4.53015 356.324 4.02121C355.504 3.08523 354.411 2.57707 353.2 2.57707C351.989 2.57707 350.896 3.08523 350.076 4.02121C349.646 4.52898 349.295 5.11475 348.982 5.73952C348.831 6.02388 348.679 6.31744 348.528 6.61118C348.367 6.92251 348.206 7.23404 348.045 7.53504L347.928 7.76981C344.921 13.5472 342.031 19.4809 339.337 25.298L339.298 25.3756C338.985 26.039 338.673 26.7032 338.4 27.3279C338.34 27.4717 338.28 27.6081 338.222 27.7394C338.092 28.0358 337.973 28.3063 337.892 28.5771C337.501 29.6702 337.424 30.646 337.541 31.6217C337.814 33.6516 339.181 35.409 341.094 36.1897C341.992 36.5407 343.008 36.6971 344.062 36.5797C345.038 36.4631 346.014 36.1507 347.029 35.5649C348.435 34.7842 349.88 33.5737 351.481 31.7777C348.943 28.6157 347.342 25.6876 346.756 23.1117C346.444 21.9402 346.405 20.8084 346.561 19.7929C346.717 18.8171 347.069 17.919 347.616 17.1382C348.826 15.4207 350.857 14.3665 353.121 14.3665C355.386 14.3665 357.416 15.3809 358.628 17.1382C359.174 17.919 359.526 18.8171 359.682 19.7929C359.8 20.8084 359.76 21.9012 359.487 23.1117C358.901 25.6876 357.339 28.5771 354.762 31.7387C356.402 33.535 357.808 34.7444 359.214 35.5259C360.228 36.1109 361.205 36.4233 362.181 36.5407C363.196 36.6581 364.212 36.5407 365.149 36.1507Z" fill="#7F7F7F"/>
<path fill-rule="evenodd" clip-rule="evenodd" d="M624.964 19.7754C624.25 18.6703 623.246 17.7843 621.99 17.1173C621.051 16.6259 620.078 16.314 618.981 16.1801V12.6686C620.078 12.2498 620.759 11.3228 620.759 10.2414C620.759 8.76735 619.444 7.57286 617.807 7.57286C616.168 7.57286 614.831 8.76735 614.831 10.2414C614.831 11.3228 615.472 12.2498 616.569 12.6686V16.1817C615.691 16.2957 614.782 16.5417 613.951 16.9197L612.185 15.7135L612.156 15.6934C609.726 14.0333 605.912 11.4269 603.434 9.73656C603.512 9.48622 603.571 9.22818 603.571 8.95595C603.571 7.32331 602.101 6 600.285 6C598.469 6 597 7.32331 597 8.95595C597 10.5884 598.471 11.9121 600.287 11.9121C600.906 11.9121 601.479 11.7491 601.973 11.4812L602.66 11.95L612.099 18.067C611.6 18.4791 611.136 18.9478 610.764 19.4738C610.011 20.546 609.55 21.7257 609.55 23.0125V23.281C609.55 24.1843 609.741 25.0371 610.066 25.8382C610.352 26.5377 610.771 27.1738 611.289 27.7488L608.156 30.5734C607.229 30.263 606.186 30.4688 605.488 31.0997C605.01 31.5273 604.743 32.1091 604.745 32.7154C604.745 33.3255 605.009 33.899 605.489 34.3304C605.964 34.7605 606.611 35.0016 607.285 35C607.959 35.0015 608.606 34.7605 609.082 34.3304C609.559 33.9029 609.827 33.3214 609.825 32.7154C609.825 32.4792 609.785 32.2488 609.708 32.0298L612.946 29.1171C613.39 29.3929 613.87 29.6251 614.385 29.8253C615.402 30.2206 616.524 30.4615 617.752 30.4615H617.977C619.335 30.4615 620.615 30.1747 621.819 29.588C623.088 28.968 624.081 28.1201 624.831 27.0376C625.585 25.9522 626 24.753 626 23.4337V23.3678C626 22.0699 625.666 20.8724 624.964 19.7754ZM621.008 25.8856C620.129 26.764 619.119 27.3051 617.977 27.3051H617.789C617.136 27.3051 616.498 27.143 615.874 26.8481C615.17 26.5233 614.634 26.0602 614.196 25.4737C613.744 24.898 613.498 24.2695 613.498 23.6031V23.4007C613.498 22.7456 613.638 22.1243 613.99 21.5377C614.367 20.8963 614.875 20.3976 615.552 20.0011C616.216 19.6073 616.925 19.4142 617.715 19.4142H617.789C618.505 19.4142 619.183 19.5412 619.823 19.8358C620.475 20.1498 621.008 20.5789 621.421 21.1433C621.822 21.7079 622.061 22.3169 622.138 22.9803C622.15 23.1182 622.156 23.2595 622.156 23.3944C622.156 24.2947 621.773 25.1286 621.008 25.8856ZM524 11H527.94V19.2098H536.25V11H540.196V31.1526H536.25V22.7703H527.94V31.1526H524V11ZM552.678 24.5886C552.678 26.2756 551.213 27.6484 549.414 27.6484C547.615 27.6484 546.15 26.2756 546.15 24.5886V15.9122H542.414V24.5886C542.414 28.2083 545.554 31.1526 549.414 31.1526C553.273 31.1526 556.414 28.2083 556.414 24.5886V15.9122H552.678V24.5886ZM562.448 17.6685C563.698 16.5183 564.991 16.0138 566.845 16.0138C571.03 16.0138 574.629 19.2939 574.629 23.5834C574.629 27.928 570.726 31.1526 566.272 31.1526C562.266 31.1526 558.699 27.9845 558.699 23.3586V11H562.448V17.6685ZM566.938 27.9001C564.398 27.9001 562.455 25.9105 562.455 23.5834C562.455 21.256 564.398 19.2657 566.938 19.2657C569.09 19.2657 571.034 21.256 571.034 23.5834C571.034 25.9105 569.09 27.9001 566.938 27.9001ZM583.556 14.5719C582.181 14.5719 580.925 15.1322 580.925 16.8996C580.925 18.2015 582.334 18.6155 584.033 19.1149C586.613 19.8734 589.863 20.8288 589.863 25.3932C589.863 28.898 586.755 31.1408 582.899 31.1408C580.328 31.1408 578.176 30.1311 576.441 28.1404L579.162 25.5056C579.255 25.6032 579.346 25.7004 579.435 25.7963C580.322 26.7477 581.098 27.5805 583.109 27.5805C584.513 27.5805 585.738 26.5422 585.738 25.3661C585.738 23.7338 584.101 23.1957 582.228 22.5802C579.724 21.7574 576.8 20.7962 576.8 16.8996C576.8 13.2266 579.729 11.0118 583.795 11.0118C585.828 11.0118 588.308 12.0774 589.533 13.6191L587.082 16.3102C586.127 15.3568 584.662 14.5719 583.556 14.5719ZM599.733 15.8164C595.726 15.8164 592.16 18.9825 592.16 23.6095V36H595.908V29.2998C597.158 30.4492 598.451 30.9545 600.305 30.9545C604.49 30.9545 608.09 27.6749 608.09 23.3853C608.09 19.0401 604.186 15.8164 599.733 15.8164ZM595.916 23.3853C595.916 25.7107 597.859 27.703 600.399 27.703C602.551 27.703 604.494 25.7107 604.494 23.3853C604.494 21.0579 602.551 19.0676 600.399 19.0676C597.859 19.0676 595.916 21.0579 595.916 23.3853ZM635.684 27.9001C633.473 27.9001 632.845 27.0034 632.845 25.6291V19.546H636.282V16.4626H632.845V12.3972L629.05 13.9948V26.3861C629.05 29.5544 631.38 31.1526 634.577 31.1526C635.056 31.1526 635.714 31.1236 636.073 31.0406L637 27.845C636.582 27.8721 636.103 27.9001 635.684 27.9001Z" fill="#7F7F7F"/>
<path fill-rule="evenodd" clip-rule="evenodd" d="M714.31 28.9169C714.082 29.1076 713.777 29.1457 713.51 28.9931C712.564 28.2108 712.26 27.7628 711.81 27.1014L711.81 27.1012C711.734 26.9889 711.653 26.8703 711.564 26.7429C709.734 28.6117 708.399 29.1838 706.034 29.1838C703.212 29.1838 701 27.4294 701 23.9588C701 21.2128 702.487 19.3822 704.585 18.4668C706.118 17.7962 708.159 17.5801 709.924 17.3933C710.267 17.357 710.6 17.3217 710.916 17.2845V16.865C710.916 16.7722 710.917 16.6774 710.918 16.5812L710.918 16.581C710.926 15.8466 710.935 15.031 710.497 14.4241C710.077 13.8139 709.314 13.5469 708.628 13.5469C707.331 13.5469 706.187 14.1953 705.92 15.5683C705.844 15.8734 705.653 16.1785 705.348 16.1785L702.106 15.8352C701.839 15.759 701.534 15.5683 701.61 15.1487C702.373 11.1823 705.92 10 709.124 10C710.764 10 712.899 10.4195 714.196 11.6781C715.707 13.0832 715.696 14.9413 715.685 16.9544V16.9546V16.9548V16.9551C715.684 17.1274 715.683 17.3008 715.683 17.4752V22.7002C715.683 24.0754 716.185 24.7722 716.721 25.5169L716.721 25.5169C716.794 25.619 716.868 25.7219 716.942 25.8276C717.171 26.1327 717.209 26.5141 716.942 26.7048C716.475 27.0738 715.801 27.6491 715.197 28.1646C714.865 28.4483 714.554 28.7138 714.31 28.9169ZM757.598 28.9931C757.865 29.1457 758.17 29.1076 758.399 28.9169C758.643 28.7138 758.954 28.4483 759.286 28.1646C759.889 27.6492 760.563 27.0738 761.031 26.7048C761.297 26.5141 761.259 26.1327 761.031 25.8276C760.957 25.7219 760.883 25.619 760.809 25.5169L760.809 25.5169C760.273 24.7722 759.772 24.0754 759.772 22.7002V17.4752C759.772 17.3006 759.773 17.1269 759.774 16.9544C759.785 14.9413 759.795 13.0832 758.285 11.6781C756.988 10.4195 754.852 10 753.212 10C750.008 10 746.461 11.1823 745.699 15.1487C745.622 15.5683 745.928 15.759 746.195 15.8352L749.436 16.1785C749.741 16.1785 749.932 15.8734 750.008 15.5683C750.275 14.1953 751.42 13.5469 752.716 13.5469C753.403 13.5469 754.166 13.8139 754.585 14.4241C755.023 15.031 755.015 15.8466 755.007 16.581C755.006 16.6773 755.005 16.7722 755.005 16.865V17.2845C754.688 17.3217 754.356 17.357 754.013 17.3933C752.247 17.5801 750.206 17.7962 748.674 18.4668C746.576 19.3822 745.088 21.2128 745.088 23.9588C745.088 27.4294 747.301 29.1838 750.123 29.1838C752.487 29.1838 753.822 28.6117 755.653 26.7429C755.742 26.8703 755.822 26.9888 755.898 27.1011L755.899 27.1014C756.348 27.7628 756.653 28.2108 757.598 28.9931ZM720.146 28.955H723.502C723.883 28.955 724.15 28.688 724.188 28.3829V19.2296L724.188 19.0484C724.186 17.0482 724.183 14.4622 726.515 14.4622C728.644 14.4622 728.609 16.781 728.581 18.635V18.6351V18.6352V18.6354V18.6355V18.6356V18.6357V18.6358V18.6359C728.577 18.8408 728.574 19.0399 728.574 19.2296V28.3829C728.574 28.688 728.841 28.955 729.185 28.9931H732.541C732.884 28.9931 733.189 28.7262 733.189 28.3829V19.2296C733.189 19.1423 733.189 19.0514 733.189 18.9577C733.185 17.9871 733.181 16.7115 733.494 15.9115C733.838 15.0343 734.715 14.5004 735.516 14.5004C736.507 14.5004 737.232 14.8436 737.499 15.9878C737.619 16.5265 737.597 17.7699 737.583 18.6304C737.579 18.8664 737.575 19.0736 737.575 19.2296V28.3829C737.575 28.688 737.842 28.955 738.185 28.9931H741.503C741.847 28.9931 742.152 28.7262 742.152 28.3829V17.4752C742.152 17.1974 742.157 16.9146 742.162 16.6295V16.6294V16.6292V16.6291V16.629V16.6288V16.6287V16.6285V16.6284C742.191 14.9963 742.222 13.2931 741.313 12.0595C740.359 10.7246 738.834 10.1526 737.423 10.1526C735.439 10.1526 733.571 11.1823 732.77 13.3562C731.854 11.1823 730.519 10.1526 728.422 10.1526C726.362 10.1526 724.799 11.1823 723.998 13.3562H723.921V11.106C723.883 10.8009 723.654 10.5339 723.311 10.5339H720.184C719.841 10.5339 719.535 10.8009 719.535 11.1442V28.3829C719.574 28.688 719.841 28.9169 720.146 28.955ZM763.815 11.106V13.585C763.815 13.9283 764.12 14.1953 764.463 14.1953H770.222L763.586 23.6918C763.166 24.3021 763.166 24.9886 763.166 25.3699V27.8871C763.166 28.2685 763.586 28.6499 763.967 28.4592C767.705 26.4378 772.243 26.6285 775.638 28.4211C776.057 28.6499 776.439 28.2304 776.439 27.849V25.2174C776.4 24.8741 776.286 24.4928 775.867 24.2639C773.96 23.196 771.709 22.8909 769.574 22.9291L775.294 14.7674C775.828 14.0046 776.133 13.5469 776.133 13.2037V11.106C776.133 10.7628 775.828 10.4958 775.485 10.4958H764.425C764.082 10.4958 763.815 10.7246 763.815 11.106ZM785.668 10.1526C790.664 10.1526 793.372 14.4241 793.372 19.878C793.372 25.1411 790.397 29.3364 785.668 29.3364C780.786 29.3364 778.117 25.0648 778.117 19.7254C778.079 14.3478 780.786 10.1526 785.668 10.1526ZM783.037 19.1915C783.037 17.0938 783.189 13.6995 785.668 13.6995C786.736 13.6995 787.499 14.1571 787.88 15.3776C788.3 16.7506 788.376 18.505 788.376 19.9542C788.376 22.1663 788.223 25.7895 785.63 25.7895C783.035 25.7895 783.036 21.4131 783.037 19.2801L783.037 19.1915ZM799.818 28.955H796.461C796.118 28.9169 795.851 28.6499 795.851 28.3448V11.0679C795.889 10.7628 796.156 10.4958 796.5 10.4958H799.627C799.932 10.4958 800.161 10.7246 800.237 10.9916V13.6232H800.313C801.267 11.2586 802.564 10.1526 804.89 10.1526C806.378 10.1526 807.865 10.6865 808.818 12.1739C809.696 13.5469 809.696 15.8734 809.696 17.5515V28.4211C809.658 28.7262 809.391 28.955 809.047 28.955H805.691C805.386 28.9169 805.119 28.688 805.081 28.4211V19.0389C805.081 18.8868 805.082 18.7293 805.084 18.5684V18.5675V18.5666V18.5657V18.5649C805.101 16.7084 805.123 14.386 802.983 14.386C802.182 14.386 801.42 14.9199 801.038 15.759C800.58 16.8268 800.504 17.8566 800.504 19.0389V28.3448C800.466 28.688 800.161 28.955 799.818 28.955ZM755.005 20.9217L755.005 20.717V19.9924C752.564 19.9924 750.008 20.5263 750.008 23.3867C750.008 24.836 750.771 25.8276 752.068 25.8276C753.021 25.8276 753.86 25.2555 754.394 24.3021C755.008 23.1824 755.007 22.1312 755.005 20.9217ZM710.954 20.717L710.954 20.9217C710.956 22.1312 710.958 23.1824 710.344 24.3021C709.81 25.2555 708.971 25.8276 708.018 25.8276C706.721 25.8276 705.958 24.836 705.958 23.3867C705.958 20.5263 708.513 19.9924 710.954 19.9924V20.717ZM771.061 32.5782C770.26 31.5484 765.722 32.0824 763.7 32.3493C763.09 32.4256 762.976 31.8917 763.548 31.5103C767.171 28.955 773.082 29.7178 773.769 30.5568C774.455 31.3959 773.578 37.3455 770.184 40.1678C769.65 40.5873 769.154 40.3585 769.383 39.7864L769.424 39.6836C770.205 37.7315 771.848 33.6273 771.061 32.5782ZM768.429 35.5912C762.137 40.2441 752.983 42.7231 745.088 42.7231C734.028 42.7231 724.112 38.6423 716.561 31.8535C715.989 31.3196 716.484 30.595 717.209 31.0145C725.333 35.7437 735.363 38.566 745.737 38.566C752.716 38.566 760.42 37.1167 767.514 34.1037C768.582 33.6842 769.459 34.8284 768.429 35.5912Z" fill="#7F7F7F"/>
</svg>
